<?xml version="1.0" encoding="utf-8"?>
<!-- Generator: Adobe Illustrator 28.3.0, SVG Export Plug-In . SVG Version: 6.00 Build 0)  -->
<svg version="1.1" id="Layer_1" xmlns="http://www.w3.org/2000/svg" xmlns:xlink="http://www.w3.org/1999/xlink" x="0px" y="0px"
	 viewBox="0 0 285.05 285.05" style="enable-background:new 0 0 285.05 285.05;" xml:space="preserve">
<style type="text/css">
	.st0{fill:#006EB7;}
	.st1{fill:#FFFFFF;}
</style>
<g>
	<circle class="st0" cx="142.53" cy="142.53" r="142.53"/>
	<g>
		<path class="st1" d="M55.73,93.77v37.95H70.9v10.71H43.08V93.77H55.73z"/>
		<path class="st1" d="M74.41,96.61c0-0.9,0.17-1.75,0.52-2.55c0.34-0.8,0.82-1.49,1.42-2.1c0.6-0.6,1.3-1.08,2.1-1.42
			c0.8-0.34,1.65-0.52,2.55-0.52s1.75,0.17,2.55,0.52c0.8,0.34,1.49,0.82,2.1,1.42c0.6,0.6,1.08,1.3,1.42,2.1
			c0.34,0.8,0.52,1.65,0.52,2.55c0,0.9-0.17,1.75-0.52,2.55c-0.34,0.8-0.82,1.5-1.42,2.1c-0.6,0.6-1.3,1.08-2.1,1.42
			c-0.8,0.34-1.65,0.52-2.55,0.52s-1.75-0.17-2.55-0.52c-0.8-0.34-1.5-0.82-2.1-1.42c-0.6-0.6-1.08-1.3-1.42-2.1
			C74.58,98.37,74.41,97.52,74.41,96.61z M86.86,109.33v33.11H75.18v-33.11H86.86z"/>
		<path class="st1" d="M91.3,109.33h11.68v4.07c3.18-3.06,6.76-4.58,10.72-4.58c4.91,0,8.65,2.07,11.23,6.2
			c2.63-4.17,6.37-6.26,11.23-6.26c1.55,0,3.01,0.23,4.39,0.68c1.38,0.45,2.56,1.16,3.55,2.13c0.99,0.97,1.78,2.23,2.36,3.78
			c0.58,1.55,0.87,3.42,0.87,5.62v21.49h-11.68v-16.33c0-1.68-0.12-3.05-0.35-4.13c-0.24-1.08-0.58-1.91-1.03-2.52
			c-0.45-0.6-0.98-1.01-1.58-1.23c-0.6-0.22-1.25-0.32-1.94-0.32c-3.74,0-5.62,2.73-5.62,8.2v16.33h-11.68v-16.33
			c0-1.68-0.11-3.07-0.32-4.16c-0.22-1.1-0.53-1.97-0.94-2.61c-0.41-0.65-0.94-1.09-1.58-1.32c-0.65-0.24-1.4-0.36-2.26-0.36
			c-0.73,0-1.42,0.11-2.07,0.32c-0.65,0.22-1.22,0.64-1.71,1.26c-0.5,0.62-0.88,1.48-1.16,2.58c-0.28,1.1-0.42,2.53-0.42,4.29v16.33
			H91.3V109.33z"/>
		<path class="st1" d="M163.88,158.96H152.2v-49.64h11.68v3.68c2.5-3.14,5.9-4.71,10.2-4.71c2.37,0,4.57,0.46,6.62,1.39
			c2.04,0.93,3.82,2.18,5.33,3.78c1.51,1.59,2.68,3.46,3.52,5.62c0.84,2.15,1.26,4.45,1.26,6.91s-0.42,4.73-1.26,6.84
			c-0.84,2.11-2,3.96-3.49,5.55c-1.49,1.59-3.24,2.84-5.26,3.74c-2.02,0.9-4.22,1.36-6.58,1.36c-4.13,0-7.57-1.42-10.33-4.26V158.96
			z M178.6,125.98c0-1.03-0.18-2.01-0.55-2.94c-0.37-0.93-0.89-1.73-1.58-2.42c-0.69-0.69-1.5-1.24-2.42-1.65
			c-0.93-0.41-1.93-0.61-3-0.61c-1.03,0-2,0.19-2.9,0.58c-0.9,0.39-1.69,0.93-2.36,1.61c-0.67,0.69-1.21,1.5-1.61,2.42
			c-0.41,0.93-0.61,1.9-0.61,2.94c0,1.03,0.19,2,0.58,2.9c0.39,0.9,0.92,1.69,1.61,2.36c0.69,0.67,1.5,1.21,2.42,1.61
			c0.92,0.41,1.9,0.61,2.94,0.61c1.03,0,2-0.19,2.9-0.58c0.9-0.39,1.69-0.92,2.36-1.61c0.67-0.69,1.2-1.49,1.61-2.39
			C178.4,127.92,178.6,126.97,178.6,125.98z"/>
		<path class="st1" d="M194.35,96.61c0-0.9,0.17-1.75,0.52-2.55c0.34-0.8,0.82-1.49,1.42-2.1c0.6-0.6,1.3-1.08,2.1-1.42
			c0.8-0.34,1.65-0.52,2.55-0.52c0.9,0,1.75,0.17,2.55,0.52c0.8,0.34,1.49,0.82,2.1,1.42c0.6,0.6,1.08,1.3,1.42,2.1
			c0.34,0.8,0.52,1.65,0.52,2.55c0,0.9-0.17,1.75-0.52,2.55c-0.34,0.8-0.82,1.5-1.42,2.1c-0.6,0.6-1.3,1.08-2.1,1.42
			c-0.8,0.34-1.65,0.52-2.55,0.52c-0.9,0-1.75-0.17-2.55-0.52c-0.8-0.34-1.5-0.82-2.1-1.42c-0.6-0.6-1.08-1.3-1.42-2.1
			C194.52,98.37,194.35,97.52,194.35,96.61z M206.81,109.33v33.11h-11.68v-33.11H206.81z"/>
		<path class="st1" d="M237.83,109.33h11.75v33.11h-11.75v-3.68c-2.5,3.14-5.87,4.71-10.13,4.71c-2.41,0-4.63-0.44-6.65-1.32
			c-2.02-0.88-3.79-2.12-5.29-3.71c-1.51-1.59-2.68-3.46-3.52-5.62c-0.84-2.15-1.26-4.5-1.26-7.04c0-2.37,0.41-4.62,1.23-6.75
			c0.82-2.13,1.96-3.99,3.42-5.58c1.46-1.59,3.21-2.85,5.23-3.78c2.02-0.92,4.26-1.39,6.71-1.39c4.13,0,7.55,1.44,10.26,4.32V109.33
			z M223.11,125.79c0,1.08,0.19,2.08,0.58,3c0.39,0.93,0.91,1.73,1.58,2.42c0.67,0.69,1.46,1.23,2.39,1.61
			c0.92,0.39,1.93,0.58,3,0.58c1.03,0,2.01-0.19,2.94-0.58c0.93-0.39,1.72-0.92,2.39-1.61c0.67-0.69,1.2-1.49,1.61-2.39
			c0.41-0.9,0.61-1.87,0.61-2.9c0-1.03-0.2-2.01-0.61-2.94c-0.41-0.93-0.95-1.73-1.61-2.42c-0.67-0.69-1.46-1.23-2.39-1.61
			c-0.93-0.39-1.9-0.58-2.94-0.58c-1.08,0-2.08,0.19-3,0.58c-0.93,0.39-1.72,0.93-2.39,1.61c-0.67,0.69-1.19,1.47-1.58,2.36
			C223.3,123.8,223.11,124.75,223.11,125.79z"/>
		<path class="st1" d="M83.82,158.96h18.85c4.48,0,7.88,1.08,10.2,3.23c2.32,2.15,3.49,5.25,3.49,9.3c0,2.45-0.44,4.49-1.32,6.1
			c-0.88,1.61-2.23,2.98-4.03,4.1c1.81,0.34,3.35,0.87,4.62,1.58c1.27,0.71,2.3,1.58,3.1,2.61c0.8,1.03,1.37,2.2,1.71,3.49
			c0.34,1.29,0.52,2.67,0.52,4.13c0,2.28-0.4,4.3-1.19,6.07c-0.8,1.76-1.92,3.25-3.36,4.45c-1.44,1.21-3.2,2.11-5.26,2.71
			c-2.07,0.6-4.39,0.9-6.97,0.9H83.82V158.96z M96.47,178.07h2.32c3.96,0,5.94-1.57,5.94-4.71c0-3.14-1.98-4.71-5.94-4.71h-2.32
			V178.07z M96.47,197.82h2.78c3.18,0,5.46-0.41,6.84-1.23c1.38-0.82,2.07-2.13,2.07-3.94s-0.69-3.12-2.07-3.94
			c-1.38-0.82-3.66-1.23-6.84-1.23h-2.78V197.82z"/>
		<path class="st1" d="M124.61,174.52h11.68v4.2c1.59-1.94,3.21-3.24,4.84-3.91c1.64-0.67,3.55-1,5.75-1c2.32,0,4.31,0.38,5.97,1.13
			c1.66,0.75,3.07,1.82,4.23,3.2c0.95,1.12,1.59,2.37,1.94,3.74c0.34,1.38,0.52,2.95,0.52,4.71v21.04h-11.68v-16.72
			c0-1.64-0.12-2.96-0.36-3.97c-0.24-1.01-0.66-1.82-1.26-2.42c-0.52-0.52-1.1-0.88-1.74-1.1c-0.65-0.22-1.33-0.32-2.07-0.32
			c-1.98,0-3.5,0.59-4.55,1.78c-1.05,1.18-1.58,2.87-1.58,5.07v17.69h-11.68V174.52z"/>
		<path class="st1" d="M163.88,158.96h18.85c4.48,0,7.88,1.08,10.2,3.23c2.32,2.15,3.49,5.25,3.49,9.3c0,2.45-0.44,4.49-1.32,6.1
			c-0.88,1.61-2.23,2.98-4.03,4.1c1.81,0.34,3.35,0.87,4.62,1.58c1.27,0.71,2.3,1.58,3.1,2.61c0.8,1.03,1.37,2.2,1.71,3.49
			c0.34,1.29,0.52,2.67,0.52,4.13c0,2.28-0.4,4.3-1.19,6.07c-0.8,1.76-1.92,3.25-3.36,4.45c-1.44,1.21-3.2,2.11-5.26,2.71
			s-4.39,0.9-6.97,0.9h-20.33V158.96z M176.53,178.07h2.32c3.96,0,5.94-1.57,5.94-4.71c0-3.14-1.98-4.71-5.94-4.71h-2.32V178.07z
			 M176.53,197.82h2.78c3.18,0,5.46-0.41,6.84-1.23c1.38-0.82,2.07-2.13,2.07-3.94s-0.69-3.12-2.07-3.94
			c-1.38-0.82-3.66-1.23-6.84-1.23h-2.78V197.82z"/>
	</g>
</g>
</svg>
