<svg width="130" height="130" viewBox="0 0 130 130" fill="none" xmlns="http://www.w3.org/2000/svg">
<g filter="url(#filter0_d_252_134)">
<circle cx="65.0559" cy="58.514" r="51.514" fill="#BFDE8E"/>
<path d="M63.0609 94.6162C63.5532 94.6396 64.0139 94.7342 64.4429 94.9002C64.8719 95.0661 65.2576 95.2907 65.6001 95.5739C65.9426 95.8571 66.2344 96.1865 66.4755 96.5619C66.7081 96.9451 66.8823 97.3659 66.9981 97.8244C67.1135 98.291 67.1589 98.7826 67.1344 99.2992C67.1099 99.8158 67.0181 100.301 66.8591 100.754C66.6916 101.216 66.4697 101.63 66.1934 101.997C65.9168 102.372 65.5944 102.689 65.2262 102.946C64.8576 103.212 64.456 103.407 64.0213 103.532C63.5782 103.665 63.1145 103.72 62.6302 103.697C62.1863 103.676 61.7694 103.595 61.3797 103.455C60.9899 103.316 60.6389 103.125 60.3268 102.884C60.0147 102.642 59.749 102.359 59.5299 102.033C59.3026 101.707 59.1379 101.343 59.0356 100.942L60.7997 100.588C60.9731 101.025 61.2278 101.369 61.5638 101.62C61.8994 101.878 62.2892 102.018 62.7331 102.039C63.0721 102.055 63.3944 101.998 63.6999 101.867C63.9974 101.735 64.2614 101.541 64.4919 101.285C64.7141 101.037 64.8941 100.738 65.032 100.389C65.1699 100.039 65.2488 99.6547 65.2687 99.235C65.2886 98.8152 65.2503 98.4292 65.1538 98.0767C65.0492 97.7239 64.894 97.4132 64.6883 97.1446C64.4823 96.884 64.2372 96.6782 63.9531 96.5272C63.661 96.3759 63.3374 96.2917 62.9822 96.2749C62.5221 96.2531 62.1132 96.3469 61.7554 96.5565C61.3891 96.7737 61.0906 97.0993 60.8596 97.5333L59.1369 97.0147C59.3313 96.4981 59.6233 96.0549 60.0129 95.6851C60.3945 95.3149 60.8446 95.0369 61.363 94.8512C61.8815 94.6654 62.4474 94.5871 63.0609 94.6162Z" fill="white"/>
<path d="M52.5905 92.5296C53.0375 92.6955 53.4209 92.9282 53.7407 93.2278C54.0605 93.5274 54.3085 93.8693 54.4849 94.2536C54.6584 94.6455 54.7531 95.0641 54.7689 95.5095C54.7771 95.9521 54.6969 96.4007 54.5282 96.8553C54.3596 97.3099 54.1255 97.697 53.8259 98.0168C53.5235 98.3442 53.1787 98.5999 52.7916 98.7838C52.3969 98.9649 51.9807 99.0647 51.5429 99.0833C51.0975 99.0991 50.6475 99.0227 50.1929 98.8541C49.7459 98.6883 49.3625 98.4556 49.0427 98.156C48.7229 97.8564 48.4762 97.5106 48.3027 97.1187C48.1264 96.7344 48.0341 96.321 48.0259 95.8784C48.0073 95.4406 48.0823 94.9944 48.2509 94.5398C48.4195 94.0852 48.655 93.6943 48.9575 93.3669C49.2599 93.0395 49.6084 92.7853 50.0031 92.6042C50.3902 92.4202 50.8065 92.3204 51.2519 92.3046C51.6897 92.286 52.1359 92.361 52.5905 92.5296ZM52.0366 93.9531C51.7487 93.8463 51.463 93.8266 51.1796 93.8938C50.8961 93.961 50.6421 94.0995 50.4178 94.3093C50.1831 94.5239 50.0039 94.7979 49.8802 95.1312C49.7566 95.4646 49.7152 95.7853 49.756 96.0935C49.7864 96.4065 49.8872 96.6809 50.0583 96.9167C50.2294 97.1525 50.4589 97.3238 50.7467 97.4306C51.0346 97.5374 51.3203 97.5572 51.6038 97.49C51.8873 97.4227 52.1464 97.2818 52.3812 97.0673C52.6055 96.8574 52.7795 96.5859 52.9031 96.2525C53.0268 95.9191 53.0734 95.596 53.043 95.2831C53.0021 94.9749 52.8962 94.7029 52.7251 94.4671C52.554 94.2312 52.3245 94.0599 52.0366 93.9531Z" fill="white"/>
<path d="M43.5336 87.6786C43.8968 87.9348 44.1615 88.2254 44.3278 88.5504C44.4828 88.8773 44.5375 89.2274 44.4918 89.6006C44.4394 89.9691 44.2759 90.3482 44.001 90.7377L42.2822 93.1742L43.1735 93.8031L42.384 94.9222L41.4926 94.2934L40.2349 96.0762L38.8483 95.0979L40.106 93.3152L38.6798 92.309L39.4693 91.1898L40.8956 92.196L42.4956 89.9279C42.6726 89.677 42.7572 89.4449 42.7494 89.2317C42.7369 89.0252 42.6217 88.845 42.4039 88.6913C42.2916 88.6121 42.1611 88.5448 42.0124 88.4893C41.857 88.4291 41.7013 88.3835 41.5452 88.3525L42.0312 87.1379C42.2774 87.1533 42.5271 87.2059 42.7803 87.2955C43.0382 87.3786 43.2893 87.5063 43.5336 87.6786Z" fill="white"/>
<path d="M32.0709 88.485C32.2063 88.3578 32.3575 88.2768 32.5244 88.2421C32.6858 88.2014 32.8514 88.2066 33.0213 88.2577C33.1797 88.3084 33.3198 88.3986 33.4415 88.5282C33.5632 88.6578 33.6471 88.8062 33.6933 88.9735C33.7281 89.1403 33.7228 89.306 33.6776 89.4703C33.6269 89.6288 33.5338 89.7716 33.3983 89.8988C33.2628 90.0261 33.1144 90.11 32.9531 90.1506C32.7862 90.1854 32.6235 90.1774 32.465 90.1267C32.2951 90.0756 32.1494 89.9853 32.0277 89.8557C31.906 89.7261 31.8278 89.5778 31.793 89.4109C31.7468 89.2437 31.7491 89.0809 31.7998 88.9224C31.845 88.758 31.9354 88.6122 32.0709 88.485ZM39.2446 84.2434L34.579 88.6241L33.4174 87.387L38.0831 83.0063L39.2446 84.2434Z" fill="white"/>
<path d="M35.1444 79.5171L34.1747 80.0921L29.235 79.4136L30.7743 82.0096L29.5962 82.7082L26.9812 78.298L27.9508 77.7231L32.8968 78.412L31.2029 75.5553L32.3811 74.8567L35.1444 79.5171Z" fill="white"/>
<path d="M30.3229 69.0163C30.4106 69.3358 30.4441 69.6409 30.4233 69.9315C30.4025 70.2221 30.3342 70.4922 30.2184 70.7419C30.0926 70.9859 29.9279 71.1945 29.724 71.3678C29.5202 71.5411 29.278 71.6662 28.9975 71.7432C28.6079 71.8501 28.2361 71.8391 27.8823 71.71C27.5284 71.5808 27.2173 71.3478 26.9488 71.0109C26.6726 70.6762 26.4649 70.2555 26.3259 69.749C26.2553 69.4919 26.2124 69.2439 26.1971 69.0051C26.1797 68.7585 26.1839 68.5143 26.2097 68.2726L25.8474 68.3721C25.4967 68.4683 25.2401 68.6477 25.0775 68.9102C24.9128 69.1649 24.8775 69.4637 24.9716 69.8065C25.0422 70.0637 25.1726 70.2793 25.3628 70.4533C25.5453 70.6295 25.7651 70.7283 26.0224 70.7499L26.1313 72.2912C25.7493 72.3038 25.3916 72.2219 25.0582 72.0452C24.7149 71.863 24.419 71.609 24.1704 71.2834C23.9218 70.9578 23.7387 70.5807 23.621 70.1521C23.5119 69.7547 23.4748 69.3753 23.5096 69.0138C23.5445 68.6523 23.6467 68.3225 23.8163 68.0246C23.9838 67.7189 24.2101 67.4598 24.4954 67.2474C24.7707 67.0294 25.1032 66.8669 25.4928 66.76L29.2332 65.7332L29.6342 67.1943L28.9224 67.44C29.2322 67.5309 29.5157 67.7087 29.7726 67.9733C30.0218 68.2401 30.2053 68.5878 30.3229 69.0163ZM28.4729 70.1526C28.6911 70.0927 28.8457 69.9539 28.9368 69.7362C29.0279 69.5185 29.0327 69.2616 28.9515 68.9654C28.8809 68.7083 28.7632 68.4934 28.5985 68.3207C28.4338 68.1481 28.2419 68.029 28.0228 67.9634C27.7959 67.9 27.5656 67.9004 27.3318 67.9646L27.2734 67.9806C27.2503 68.1713 27.246 68.3694 27.2605 68.5749C27.2672 68.7825 27.2973 68.9838 27.3508 69.1786C27.4514 69.5448 27.6056 69.8167 27.8135 69.9943C28.0116 70.1661 28.2313 70.2189 28.4729 70.1526Z" fill="white"/>
<path d="M28.3948 55.7241L20.6491 50.6498L21.0332 48.7736L30.1521 47.1387L29.7802 48.9556L27.7868 49.2651L27.0406 52.9107L28.7521 53.9786L28.3948 55.7241ZM25.6586 52.0463L26.1763 49.517L22.5557 50.0997L25.6586 52.0463Z" fill="white"/>
<path d="M33.248 41.0091C33.04 41.3742 32.7743 41.6693 32.4509 41.8942C32.1275 42.1192 31.7699 42.2735 31.3781 42.3572C30.9793 42.4369 30.5664 42.4435 30.1393 42.3769C29.7162 42.3033 29.2976 42.1485 28.8833 41.9126C28.462 41.6726 28.1104 41.3839 27.8283 41.0465C27.5462 40.7091 27.3397 40.3451 27.2089 39.9544C27.071 39.5596 27.0204 39.1588 27.0569 38.7518C27.0864 38.3409 27.2072 37.9493 27.4192 37.5772C27.6271 37.2121 27.8924 36.9261 28.2148 36.7192C28.5373 36.5122 28.8929 36.394 29.2818 36.3644L28.579 35.9083L29.353 34.5497L36.9571 38.8813L36.1172 40.3558L33.3683 38.7899C33.5231 39.1385 33.5918 39.5077 33.5743 39.8977C33.5608 40.2805 33.452 40.651 33.248 41.0091ZM32.119 39.9056C32.271 39.6388 32.3367 39.3601 32.3163 39.0695C32.2959 38.7788 32.2003 38.5058 32.0295 38.2505C31.8558 37.9841 31.6144 37.7629 31.3055 37.587C30.9966 37.411 30.6867 37.3182 30.376 37.3086C30.0623 37.288 29.7752 37.343 29.5148 37.4736C29.2544 37.6043 29.0482 37.803 28.8962 38.0698C28.7442 38.3366 28.6784 38.6153 28.6989 38.906C28.7193 39.1966 28.8164 39.4751 28.9901 39.7415C29.1609 39.9968 29.4007 40.2125 29.7097 40.3885C30.0186 40.5645 30.3299 40.6628 30.6437 40.6834C30.9544 40.693 31.24 40.6325 31.5004 40.5018C31.7608 40.3712 31.967 40.1724 32.119 39.9056Z" fill="white"/>
<path d="M39.7502 32.4773C39.3323 32.8821 38.8823 33.1492 38.4003 33.2787C37.9184 33.3968 37.4329 33.3776 36.944 33.2213C36.4552 33.0535 35.9943 32.7462 35.5614 32.2993L33.0988 29.7571L34.3177 28.5764L36.8055 31.1447C37.126 31.4755 37.4574 31.6608 37.7996 31.7005C38.1362 31.7344 38.438 31.6221 38.705 31.3635C38.972 31.1048 39.0939 30.8068 39.0707 30.4692C39.0418 30.1259 38.8672 29.7888 38.5467 29.458L36.0589 26.8897L37.2777 25.7091L39.7403 28.2512C40.0607 28.582 40.3009 28.9287 40.4609 29.2913C40.6209 29.6538 40.7007 30.0208 40.7006 30.3923C40.7004 30.7637 40.6203 31.1282 40.4603 31.4857C40.3061 31.8375 40.0694 32.1681 39.7502 32.4773Z" fill="white"/>
<path d="M45.2357 27.8549L41.9305 22.3746L43.3836 21.4983L46.6888 26.9786L45.2357 27.8549ZM41.1911 21.7589L41.4792 19.5611L43.0984 18.5845L42.5612 20.9326L41.1911 21.7589Z" fill="white"/>
<path d="M55.9402 20.462L55.6663 19.0088L59.0371 18.3734L59.311 19.8266L55.9402 20.462Z" fill="white"/>
<path d="M73.9856 23.397C73.5072 23.2784 73.0737 23.0961 72.6852 22.8499C72.2966 22.6037 71.9619 22.3084 71.6809 21.9641C71.4 21.6197 71.1778 21.2399 71.0143 20.8248C70.8606 20.4037 70.7715 19.957 70.7471 19.4847C70.7246 19.0046 70.7755 18.5136 70.9 18.0116C71.0244 17.5097 71.2087 17.0517 71.4529 16.6377C71.7068 16.2178 72.005 15.8546 72.3473 15.5482C72.6916 15.2339 73.0694 14.9862 73.4806 14.8051C73.8938 14.6162 74.3257 14.5026 74.7764 14.4645C75.2368 14.4205 75.7024 14.4568 76.173 14.5734C76.6044 14.6804 76.9976 14.8403 77.3528 15.0532C77.7079 15.2661 78.0151 15.5213 78.2744 15.8187C78.5337 16.1161 78.7392 16.4459 78.8908 16.8082C79.0503 17.1724 79.1412 17.5612 79.1636 17.9747L77.3644 17.9783C77.2793 17.5159 77.0962 17.1292 76.8153 16.8181C76.5364 16.4992 76.1813 16.2863 75.7499 16.1794C75.4205 16.0977 75.0932 16.0915 74.768 16.1607C74.4506 16.2319 74.154 16.3707 73.878 16.577C73.6119 16.7774 73.3772 17.0356 73.174 17.3516C72.9708 17.6675 72.8187 18.0294 72.7176 18.4372C72.6165 18.8451 72.579 19.2312 72.6052 19.5957C72.6393 19.9621 72.7311 20.2971 72.8806 20.6006C73.0321 20.8962 73.2325 21.1457 73.4818 21.349C73.7389 21.5543 74.0401 21.6997 74.3852 21.7853C74.8322 21.8961 75.2516 21.8835 75.6433 21.7475C76.0448 21.6056 76.401 21.3442 76.7118 20.9634L78.301 21.8069C78.0099 22.2759 77.6373 22.6539 77.1832 22.9409C76.7369 23.2299 76.2414 23.4151 75.6968 23.4966C75.1521 23.578 74.5817 23.5448 73.9856 23.397Z" fill="white"/>
<path d="M83.8506 27.4796C83.4444 27.23 83.1135 26.9273 82.858 26.5712C82.6026 26.2151 82.4257 25.8315 82.3274 25.4203C82.2334 25.0021 82.2219 24.5731 82.293 24.1331C82.3709 23.6974 82.5368 23.2729 82.7905 22.8598C83.0443 22.4467 83.3492 22.1124 83.7053 21.8569C84.0655 21.5945 84.4534 21.4108 84.8689 21.3056C85.2912 21.2047 85.719 21.1876 86.1521 21.2545C86.592 21.3256 87.0186 21.488 87.4317 21.7417C87.838 21.9913 88.1688 22.294 88.4243 22.6501C88.6797 23.0062 88.8545 23.3932 88.9486 23.8114C89.0469 24.2226 89.057 24.6461 88.979 25.0819C88.9122 25.5149 88.7519 25.9381 88.4981 26.3512C88.2444 26.7643 87.9374 27.1021 87.5771 27.3644C87.2168 27.6268 86.8255 27.8084 86.4031 27.9094C85.9876 28.0145 85.5599 28.0316 85.1199 27.9605C84.6869 27.8936 84.2637 27.7333 83.8506 27.4796ZM84.6706 26.1909C84.9322 26.3516 85.2086 26.4265 85.4998 26.4157C85.7909 26.4049 86.0669 26.3183 86.3278 26.1561C86.5997 25.9912 86.8287 25.7573 87.0148 25.4544C87.2009 25.1514 87.3039 24.8448 87.3237 24.5346C87.3547 24.2217 87.3092 23.9329 87.1872 23.6684C87.0652 23.4038 86.8734 23.1911 86.6118 23.0304C86.3501 22.8697 86.0737 22.7948 85.7826 22.8056C85.4914 22.8164 85.2098 22.9043 84.9379 23.0692C84.677 23.2314 84.4536 23.464 84.2675 23.7669C84.0814 24.0699 83.9729 24.3778 83.9419 24.6907C83.9221 25.0009 83.9731 25.2884 84.0951 25.5529C84.2171 25.8175 84.4089 26.0302 84.6706 26.1909Z" fill="white"/>
<path d="M91.7931 33.998C91.4867 33.6761 91.2835 33.3396 91.1835 32.9885C91.095 32.6377 91.1094 32.2837 91.2268 31.9265C91.3497 31.5752 91.5839 31.2351 91.9292 30.9064L94.0888 28.8505L93.3367 28.0604L94.3287 27.116L95.0809 27.9061L96.6611 26.4018L97.8311 27.6308L96.2509 29.1352L97.4543 30.3994L96.4623 31.3437L95.2589 30.0796L93.2485 31.9934C93.0261 32.2051 92.898 32.4163 92.8642 32.6269C92.8363 32.832 92.9143 33.0311 93.0981 33.2243C93.1929 33.3238 93.3078 33.4152 93.4429 33.4985C93.5836 33.5877 93.7275 33.6627 93.8746 33.7235L93.1617 34.8205C92.9232 34.7575 92.6885 34.6574 92.4575 34.5202C92.2207 34.3887 91.9992 34.2146 91.7931 33.998Z" fill="white"/>
<path d="M103.195 35.4348C103.038 35.5332 102.874 35.5833 102.703 35.5849C102.537 35.5935 102.376 35.5561 102.219 35.473C102.073 35.3925 101.953 35.2768 101.859 35.126C101.765 34.9752 101.712 34.8133 101.699 34.6403C101.697 34.4698 101.734 34.3084 101.811 34.156C101.891 34.0104 102.01 33.8883 102.168 33.7899C102.326 33.6914 102.488 33.638 102.654 33.6294C102.824 33.6278 102.982 33.6672 103.128 33.7478C103.284 33.8309 103.41 33.9479 103.504 34.0987C103.598 34.2494 103.646 34.4101 103.648 34.5805C103.661 34.7535 103.627 34.9128 103.546 35.0584C103.47 35.2109 103.353 35.3363 103.195 35.4348ZM95.334 38.2012L100.762 34.8109L101.661 36.2502L96.2329 39.6404L95.334 38.2012Z" fill="white"/>
<path d="M98.4356 43.6354L99.4984 43.2599L104.212 44.8855L103.207 42.0398L104.498 41.5835L106.206 46.4179L105.143 46.7934L100.426 45.1563L101.532 48.2878L100.24 48.744L98.4356 43.6354Z" fill="white"/>
<path d="M101.123 54.8732C101.099 54.5427 101.125 54.237 101.202 53.956C101.279 53.675 101.399 53.4232 101.561 53.2009C101.731 52.9859 101.934 52.8133 102.167 52.683C102.401 52.5526 102.663 52.477 102.953 52.4559C103.356 52.4268 103.718 52.5099 104.04 52.7053C104.362 52.9007 104.622 53.1898 104.82 53.5724C105.026 53.9545 105.148 54.4075 105.186 54.9313C105.205 55.1973 105.199 55.4489 105.168 55.6861C105.137 55.9314 105.085 56.1701 105.013 56.4022L105.388 56.3751C105.75 56.3488 106.037 56.2227 106.248 55.9968C106.459 55.779 106.551 55.4928 106.526 55.1381C106.506 54.8722 106.42 54.6354 106.268 54.4277C106.123 54.2194 105.926 54.0797 105.678 54.0086L105.871 52.4755C106.248 52.5373 106.583 52.6872 106.876 52.9253C107.177 53.1708 107.418 53.4775 107.599 53.8452C107.779 54.2129 107.886 54.6184 107.918 55.0616C107.947 55.4727 107.91 55.8521 107.806 56.1999C107.701 56.5478 107.537 56.8514 107.313 57.1106C107.089 57.378 106.816 57.5881 106.495 57.741C106.183 57.9014 105.825 57.9961 105.422 58.0253L101.554 58.3055L101.444 56.7943L102.19 56.6917C101.904 56.5423 101.661 56.3128 101.46 56.0033C101.267 55.6932 101.155 55.3165 101.123 54.8732ZM103.158 54.1181C102.933 54.1345 102.754 54.2406 102.622 54.4365C102.491 54.6323 102.436 54.8834 102.458 55.1897C102.477 55.4556 102.551 55.6893 102.679 55.8907C102.807 56.092 102.972 56.2462 103.174 56.3531C103.385 56.4594 103.611 56.5038 103.852 56.4862L103.913 56.4819C103.973 56.2993 104.015 56.1058 104.041 55.9014C104.075 55.6964 104.084 55.4932 104.07 55.2917C104.042 54.9129 103.944 54.6162 103.774 54.4016C103.614 54.1945 103.408 54.1 103.158 54.1181Z" fill="white"/>
<path d="M100.431 68.2873L107.043 74.7704L106.301 76.5362L97.0384 76.3675L97.7563 74.6575L99.7719 74.7413L101.212 71.3103L99.7411 69.9302L100.431 68.2873ZM102.4 72.4268L101.401 74.8073L105.065 74.9394L102.4 72.4268Z" fill="white"/>
<path d="M92.8102 81.7775C93.0852 81.4598 93.4031 81.222 93.7641 81.0643C94.1251 80.9065 94.5059 80.8246 94.9065 80.8186C95.3132 80.8179 95.7195 80.8917 96.1255 81.04C96.5262 81.1945 96.9068 81.4277 97.2672 81.7397C97.6339 82.0569 97.9227 82.4085 98.1339 82.7943C98.345 83.18 98.4768 83.5773 98.5292 83.986C98.5877 84.3999 98.5594 84.803 98.4445 85.1951C98.3357 85.5925 98.1411 85.9531 97.8609 86.2769C97.5859 86.5947 97.2701 86.8237 96.9136 86.964C96.5571 87.1042 96.1852 87.1511 95.7981 87.1046L96.3987 87.6885L95.3755 88.8708L88.7583 83.1439L89.8688 81.8608L92.2609 83.931C92.1767 83.559 92.1812 83.1835 92.2741 82.8044C92.3618 82.4314 92.5405 82.0891 92.8102 81.7775ZM93.7032 83.0794C93.5023 83.3116 93.3836 83.5722 93.3472 83.8613C93.3107 84.1504 93.3514 84.4367 93.4693 84.7204C93.5879 85.0154 93.7817 85.2793 94.0505 85.512C94.3194 85.7447 94.6053 85.8959 94.9082 85.9657C95.2119 86.0469 95.5042 86.0488 95.7851 85.9712C96.0659 85.8937 96.3068 85.7388 96.5078 85.5066C96.7087 85.2745 96.8274 85.0138 96.8638 84.7248C96.9003 84.4357 96.8592 84.1436 96.7405 83.8486C96.6226 83.5649 96.4293 83.3067 96.1605 83.0741C95.8916 82.8414 95.6053 82.6845 95.3016 82.6032C94.9986 82.5334 94.7068 82.5373 94.4259 82.6148C94.1451 82.6924 93.9042 82.8472 93.7032 83.0794Z" fill="white"/>
<path d="M84.7756 88.8812C85.2642 88.5654 85.7575 88.3908 86.2556 88.3574C86.7513 88.3353 87.2237 88.4484 87.673 88.6968C88.1198 88.9564 88.5121 89.3475 88.8499 89.87L90.7715 92.8423L89.3464 93.7636L87.4051 90.7607C87.1551 90.3739 86.866 90.1278 86.5381 90.0223C86.2144 89.9236 85.8966 89.9751 85.5844 90.1769C85.2722 90.3787 85.0947 90.6474 85.0519 90.983C85.0135 91.3254 85.1193 91.69 85.3693 92.0768L87.3106 95.0797L85.8855 96.0009L83.964 93.0286C83.7139 92.6418 83.5457 92.2551 83.4592 91.8683C83.3728 91.4816 83.3658 91.1061 83.4382 90.7417C83.5105 90.3774 83.6599 90.0355 83.8863 89.7159C84.106 89.4007 84.4024 89.1225 84.7756 88.8812Z" fill="white"/>
<path d="M78.4965 92.3508L80.6735 98.369L79.0778 98.9462L76.9008 92.928L78.4965 92.3508ZM81.2791 99.1167L80.5693 101.217L78.7912 101.86L79.7746 99.6609L81.2791 99.1167Z" fill="white"/>
<path d="M66.5582 97.5219L66.5444 99.0006L63.1143 98.9687L63.1281 97.49L66.5582 97.5219Z" fill="white"/>
<g clip-path="url(#clip0_252_134)">
<path opacity="0.978" fill-rule="evenodd" clip-rule="evenodd" d="M60.9277 43.9648C64.3809 43.9648 67.834 43.9648 71.2871 43.9648C74.0563 44.4491 76.0165 45.9725 77.1676 48.5352C77.426 49.2033 77.5885 49.894 77.6551 50.607C77.6957 56.5789 77.6957 62.5508 77.6551 68.5227C77.2031 71.7978 75.4055 73.9408 72.2621 74.9516C71.9266 75.0124 71.6015 75.0835 71.2871 75.1648C67.834 75.1648 64.3809 75.1648 60.9277 75.1648C58.1586 74.6806 56.1984 73.1572 55.0473 70.5945C54.7888 69.9264 54.6263 69.2357 54.5598 68.5227C54.5191 62.5508 54.5191 56.5789 54.5598 50.607C55.0118 47.3319 56.8094 45.1889 59.9527 44.1781C60.2858 44.1048 60.6108 44.0337 60.9277 43.9648ZM61.8418 46.4023C64.6856 46.3922 67.5294 46.4023 70.373 46.4328C72.487 46.5601 73.9799 47.5859 74.852 49.5102C75.0015 49.9254 75.103 50.3519 75.1566 50.7898C75.1973 56.6398 75.1973 62.4898 75.1566 68.3398C74.7671 70.6794 73.4163 72.1114 71.1043 72.6359C70.8605 72.6562 70.6168 72.6766 70.373 72.6969C67.2844 72.7543 64.197 72.734 61.1105 72.6359C58.8262 72.1188 57.4754 70.707 57.0582 68.4008C56.9981 62.3865 57.0184 56.374 57.1191 50.3633C57.7626 47.9214 59.3368 46.6011 61.8418 46.4023Z" fill="white"/>
<path opacity="0.991" fill-rule="evenodd" clip-rule="evenodd" d="M60.2574 51.9482C64.1575 51.938 68.0575 51.9482 71.9574 51.9786C72.8023 52.4007 73.0156 53.0406 72.5973 53.8982C72.4302 54.1185 72.2169 54.2708 71.9574 54.3552C68.0574 54.3958 64.1574 54.3958 60.2574 54.3552C59.7033 54.156 59.4189 53.7599 59.4043 53.1669C59.4313 52.5725 59.7157 52.1662 60.2574 51.9482Z" fill="white"/>
<path opacity="0.956" fill-rule="evenodd" clip-rule="evenodd" d="M60.3781 56.8234C61.5573 56.6706 62.2276 57.1785 62.3891 58.3468C62.3044 59.2846 61.7965 59.7925 60.8656 59.8702C59.902 59.8208 59.3739 59.3129 59.2812 58.3468C59.3208 57.5973 59.6864 57.0895 60.3781 56.8234Z" fill="white"/>
<path opacity="0.956" fill-rule="evenodd" clip-rule="evenodd" d="M65.6797 56.8224C66.8589 56.6696 67.5292 57.1775 67.6907 58.3458C67.4969 59.6317 66.7656 60.109 65.4969 59.7779C64.5668 59.1961 64.3535 58.4141 64.8571 57.4318C65.0888 57.1598 65.363 56.9566 65.6797 56.8224Z" fill="white"/>
<path opacity="0.956" fill-rule="evenodd" clip-rule="evenodd" d="M70.92 56.8224C72.0992 56.6696 72.7695 57.1775 72.9309 58.3458C72.7371 59.6317 72.0059 60.109 70.7372 59.7779C69.8071 59.1961 69.5938 58.4141 70.0973 57.4318C70.329 57.1598 70.6032 56.9566 70.92 56.8224Z" fill="white"/>
<path opacity="0.956" fill-rule="evenodd" clip-rule="evenodd" d="M60.4395 62.0636C61.6187 61.9108 62.289 62.4187 62.4504 63.587C62.2567 64.8729 61.5254 65.3502 60.2567 65.0191C59.3266 64.4373 59.1133 63.6553 59.6168 62.673C59.8485 62.401 60.1227 62.1979 60.4395 62.0636Z" fill="white"/>
<path opacity="0.956" fill-rule="evenodd" clip-rule="evenodd" d="M65.6797 62.0626C66.8589 61.9099 67.5292 62.4177 67.6907 63.5861C67.4969 64.8719 66.7656 65.3492 65.4969 65.0181C64.5668 64.4363 64.3535 63.6543 64.8571 62.672C65.0888 62.4 65.363 62.1969 65.6797 62.0626Z" fill="white"/>
<path opacity="0.968" fill-rule="evenodd" clip-rule="evenodd" d="M70.982 62.0641C71.8261 61.9015 72.3644 62.2265 72.5969 63.0391C72.6375 65.1516 72.6375 67.2641 72.5969 69.3766C72.3204 70.1391 71.7822 70.4336 70.982 70.2602C70.5615 70.1037 70.2873 69.8091 70.1594 69.3766C70.1187 67.2641 70.1187 65.1516 70.1594 63.0391C70.2721 62.5715 70.5463 62.2464 70.982 62.0641Z" fill="white"/>
<path opacity="0.956" fill-rule="evenodd" clip-rule="evenodd" d="M60.4395 67.2433C61.6187 67.0905 62.289 67.5984 62.4504 68.7667C62.2567 70.0526 61.5254 70.5299 60.2567 70.1988C59.3266 69.617 59.1133 68.835 59.6168 67.8527C59.8485 67.5807 60.1227 67.3775 60.4395 67.2433Z" fill="white"/>
<path opacity="0.956" fill-rule="evenodd" clip-rule="evenodd" d="M65.6797 67.2423C66.8589 67.0895 67.5292 67.5974 67.6907 68.7658C67.4969 70.0516 66.7656 70.5289 65.4969 70.1978C64.5668 69.616 64.3535 68.834 64.8571 67.8517C65.0888 67.5797 65.363 67.3766 65.6797 67.2423Z" fill="white"/>
</g>
</g>
<defs>
<filter id="filter0_d_252_134" x="0.541993" y="0.5" width="130" height="130" filterUnits="userSpaceOnUse" color-interpolation-filters="sRGB">
<feFlood flood-opacity="0" result="BackgroundImageFix"/>
<feColorMatrix in="SourceAlpha" type="matrix" values="0 0 0 0 0 0 0 0 0 0 0 0 0 0 0 0 0 0 127 0" result="hardAlpha"/>
<feOffset dy="6.5"/>
<feGaussianBlur stdDeviation="6.5"/>
<feComposite in2="hardAlpha" operator="out"/>
<feColorMatrix type="matrix" values="0 0 0 0 0 0 0 0 0 0 0 0 0 0 0 0 0 0 0.2 0"/>
<feBlend mode="normal" in2="BackgroundImageFix" result="effect1_dropShadow_252_134"/>
<feBlend mode="normal" in="SourceGraphic" in2="effect1_dropShadow_252_134" result="shape"/>
</filter>
<clipPath id="clip0_252_134">
<rect width="31.2" height="31.2" fill="white" transform="translate(50.5371 43.9951)"/>
</clipPath>
</defs>
</svg>
