<svg width="24" height="25" viewBox="0 0 24 25" fill="none" xmlns="http://www.w3.org/2000/svg">
<path d="M12.0004 14.9004L11.3442 15.655C11.7205 15.9822 12.2803 15.9822 12.6566 15.655L12.0004 14.9004ZM6.87357 15.7547C7.40485 15.6038 7.71323 15.0508 7.56235 14.5196C7.41148 13.9883 6.85849 13.6799 6.32721 13.8308L6.87357 15.7547ZM17.6736 13.8308C17.1423 13.6799 16.5893 13.9883 16.4384 14.5196C16.2876 15.0508 16.5959 15.6038 17.1272 15.7547L17.6736 13.8308ZM15.8004 7.59604C15.8004 8.14061 15.5851 8.81679 15.1709 9.58205C14.764 10.3339 14.2089 11.0924 13.6333 11.7806C13.0605 12.4654 12.4849 13.0601 12.0511 13.4845C11.8348 13.696 11.6553 13.8638 11.5311 13.9776C11.469 14.0345 11.4209 14.0778 11.3889 14.1062C11.373 14.1205 11.361 14.131 11.3535 14.1376C11.3497 14.141 11.347 14.1433 11.3455 14.1447C11.3447 14.1454 11.3442 14.1458 11.344 14.146C11.3439 14.1461 11.3438 14.1461 11.3439 14.1461C11.3439 14.1461 11.344 14.146 11.344 14.146C11.3441 14.1459 11.3442 14.1458 12.0004 14.9004C12.6566 15.655 12.6567 15.6549 12.6569 15.6547C12.657 15.6546 12.6572 15.6545 12.6573 15.6543C12.6577 15.654 12.6581 15.6537 12.6585 15.6533C12.6595 15.6524 12.6607 15.6514 12.6623 15.65C12.6653 15.6474 12.6695 15.6437 12.6748 15.639C12.6854 15.6297 12.7005 15.6164 12.7197 15.5993C12.758 15.5651 12.813 15.5156 12.8822 15.4523C13.0204 15.3256 13.216 15.1428 13.4497 14.9141C13.9159 14.458 14.5403 13.8136 15.1675 13.0637C15.7919 12.3171 16.4368 11.4451 16.9299 10.5339C17.4157 9.63616 17.8004 8.61669 17.8004 7.59604H15.8004ZM12.0004 14.9004C12.6566 14.1458 12.6567 14.1459 12.6568 14.146C12.6568 14.146 12.6569 14.1461 12.6569 14.1461C12.6569 14.1461 12.6569 14.1461 12.6568 14.146C12.6566 14.1458 12.6561 14.1454 12.6553 14.1447C12.6537 14.1433 12.6511 14.141 12.6473 14.1376C12.6397 14.131 12.6278 14.1205 12.6119 14.1062C12.5799 14.0778 12.5317 14.0345 12.4697 13.9776C12.3454 13.8638 12.166 13.696 11.9497 13.4845C11.5159 13.0601 10.9403 12.4654 10.3675 11.7806C9.7919 11.0924 9.23676 10.3339 8.82986 9.58205C8.41573 8.81679 8.20039 8.14061 8.20039 7.59604H6.20039C6.20039 8.61669 6.58506 9.63616 7.07092 10.5339C7.56403 11.4451 8.20888 12.3171 8.83331 13.0637C9.46052 13.8136 10.0849 14.458 10.5511 14.9141C10.7848 15.1428 10.9803 15.3256 11.1186 15.4523C11.1878 15.5156 11.2428 15.5651 11.2811 15.5993C11.3003 15.6164 11.3153 15.6297 11.326 15.639C11.3313 15.6437 11.3355 15.6474 11.3385 15.65C11.34 15.6514 11.3413 15.6524 11.3422 15.6533C11.3427 15.6537 11.3431 15.654 11.3434 15.6543C11.3436 15.6545 11.3438 15.6546 11.3439 15.6547C11.3441 15.6549 11.3442 15.655 12.0004 14.9004ZM8.20039 7.59604C8.20039 5.5756 9.88088 3.90039 12.0004 3.90039V1.90039C8.81797 1.90039 6.20039 4.42981 6.20039 7.59604H8.20039ZM12.0004 3.90039C14.1199 3.90039 15.8004 5.5756 15.8004 7.59604H17.8004C17.8004 4.42981 15.1828 1.90039 12.0004 1.90039V3.90039ZM20.6004 18.1004C20.6004 18.3043 20.5054 18.5891 20.1442 18.945C19.7794 19.3043 19.2003 19.6739 18.404 20.0057C16.8158 20.6675 14.5523 21.1004 12.0004 21.1004V23.1004C14.7504 23.1004 17.2869 22.6378 19.1732 21.8519C20.1142 21.4598 20.9409 20.9675 21.5478 20.3698C22.1581 19.7685 22.6004 19.001 22.6004 18.1004H20.6004ZM12.0004 21.1004C9.44845 21.1004 7.18502 20.6675 5.59678 20.0057C4.80048 19.6739 4.22135 19.3043 3.85659 18.945C3.49535 18.5891 3.40039 18.3043 3.40039 18.1004H1.40039C1.40039 19.001 1.84269 19.7685 2.45302 20.3698C3.05983 20.9675 3.88659 21.4598 4.82755 21.8519C6.71383 22.6378 9.25039 23.1004 12.0004 23.1004V21.1004ZM3.40039 18.1004C3.40039 17.8494 3.55143 17.4622 4.16014 16.993C4.75881 16.5316 5.67899 16.0939 6.87357 15.7547L6.32721 13.8308C4.98646 14.2115 3.80664 14.7403 2.93915 15.409C2.08169 16.0699 1.40039 16.9765 1.40039 18.1004H3.40039ZM17.1272 15.7547C18.3218 16.0939 19.242 16.5316 19.8406 16.993C20.4493 17.4622 20.6004 17.8494 20.6004 18.1004H22.6004C22.6004 16.9765 21.9191 16.0699 21.0616 15.409C20.1941 14.7403 19.0143 14.2115 17.6736 13.8308L17.1272 15.7547Z" fill="#BFDE8E"/>
</svg>
