<svg width="50" height="50" viewBox="0 0 38 40" fill="none" xmlns="http://www.w3.org/2000/svg">
<path d="M3.68606 0.0857811C2.52427 0.311901 1.50283 1.23198 1.09737 2.40157C0.957016 2.81482 0.949219 3.34504 0.949219 20C0.949219 36.655 0.957016 37.1852 1.09737 37.5984C1.51062 38.7992 2.52427 39.6881 3.74844 39.922C4.32544 40.0312 33.6666 40.0312 34.2514 39.922C35.187 39.7505 36.2163 39.002 36.6217 38.2066C37.0818 37.3022 37.0506 38.5809 37.0506 20C37.0506 1.41911 37.0818 2.69786 36.6217 1.79338C36.2163 0.998062 35.187 0.249523 34.2514 0.0779839C33.729 -0.015583 4.18509 -0.015583 3.68606 0.0857811ZM34.2202 2.49514C34.7348 2.80703 34.7504 2.885 34.7504 5.61404V8.07018L18.9843 8.09358L3.21043 8.10917V5.67642C3.21043 2.95517 3.22602 2.86161 3.74844 2.51853L4.01355 2.33919H18.9921C33.7134 2.33919 33.9785 2.33919 34.2202 2.49514ZM34.7738 23.6023C34.7504 36.1793 34.7426 36.8577 34.6101 37.0994C34.5321 37.2398 34.3605 37.4269 34.2202 37.5049C33.9785 37.6608 33.7134 37.6608 18.9921 37.6608H4.01355L3.74844 37.4815C3.60029 37.3879 3.42095 37.1852 3.35078 37.037C3.21823 36.7797 3.21043 35.9766 3.21043 23.5634V10.3704H18.9999H34.7894L34.7738 23.6023Z" fill="#BFDE8E"/>
<path d="M23.8108 4.21017C23.4132 4.45188 23.2338 4.80276 23.2728 5.2706C23.2884 5.49672 23.3664 5.75403 23.4521 5.87099C23.7406 6.26865 23.959 6.31543 25.573 6.31543C26.9765 6.31543 27.0623 6.30763 27.304 6.13609C27.6003 5.94116 27.8498 5.51231 27.8498 5.22381C27.8498 4.88073 27.5223 4.34272 27.226 4.19457C26.9921 4.07761 26.727 4.05422 25.5106 4.05422C24.2085 4.05422 24.0447 4.06982 23.8108 4.21017Z" fill="#BFDE8E"/>
<path d="M29.9932 4.20335C29.5877 4.45286 29.463 4.65559 29.424 5.10783C29.4006 5.44311 29.424 5.58346 29.5566 5.79399C29.8451 6.26183 30.0634 6.31641 31.7242 6.31641C33.4318 6.31641 33.5877 6.26962 33.8684 5.64584C34.04 5.24038 34.0166 4.94409 33.7827 4.55422C33.5176 4.11758 33.2525 4.0552 31.654 4.0552C30.3987 4.0552 30.1959 4.07079 29.9932 4.20335Z" fill="#BFDE8E"/>
<path d="M17.9867 12.9438C14.6884 13.2635 11.819 14.9243 9.90088 17.6143C7.35897 21.1777 7.17183 25.973 9.43304 29.7469C11.4603 33.1387 15.0627 35.1738 19.0159 35.166C24.2869 35.1582 28.7703 31.5013 29.9165 26.2771C30.088 25.5052 30.1582 23.4623 30.0412 22.6124C29.5266 18.7761 27.0315 15.4311 23.5227 13.8561C21.9087 13.1309 19.7254 12.7722 17.9867 12.9438ZM20.9886 15.4311C22.743 15.8911 24.0139 16.5929 25.2069 17.7781C26.2128 18.7839 26.9379 19.9457 27.3824 21.2791C27.6943 22.2069 27.6865 22.2537 27.2888 22.3707C27.1017 22.4253 26.5481 22.6904 26.0568 22.9633C24.9808 23.5559 24.6299 23.6572 23.7644 23.6104C23.0627 23.5715 23.1562 23.6104 21.511 22.7449C20.6689 22.3083 19.9828 22.1446 18.9769 22.1446C18.0022 22.1446 17.1835 22.3473 16.396 22.7839C14.9925 23.5559 14.9379 23.5792 14.166 23.6104C13.3083 23.6494 12.973 23.5559 12.0607 23.0256C11.7176 22.8307 11.1952 22.5734 10.8911 22.4486C10.2596 22.1991 10.2751 22.2381 10.5948 21.2869C11.6943 18.0276 14.4389 15.7664 17.9087 15.2518C18.4779 15.166 20.4194 15.2752 20.9886 15.4311ZM20.0451 24.6007C20.2011 24.6553 20.6455 24.8814 21.0276 25.0997C22.1426 25.7391 22.9145 25.9652 23.9906 25.9652C25.0822 25.9652 25.8307 25.7391 26.9925 25.0763L27.7332 24.6475L27.7566 24.8502C27.8268 25.3804 27.398 26.9633 26.9145 27.9223C26.4857 28.7878 26.0334 29.4194 25.2927 30.1913C22.8054 32.7722 19.0393 33.5676 15.6943 32.2264C13.1835 31.2206 11.2654 29.0997 10.5091 26.4954C10.3297 25.8638 10.127 24.7177 10.1894 24.6553C10.205 24.6397 10.5091 24.7956 10.8677 25.0061C12.0217 25.6923 12.9106 25.9652 14.0256 25.9652C15.0861 25.9652 15.9594 25.6845 17.3629 24.8814C17.6826 24.7021 18.0958 24.5305 18.3375 24.4915C18.8366 24.4058 19.6397 24.4525 20.0451 24.6007Z" fill="#BFDE8E"/>
</svg>
