<svg width="50" height="50" viewBox="0 0 40 40" fill="none" xmlns="http://www.w3.org/2000/svg">
<path d="M20.835 0.28125C20.5772 0.421875 19.1397 2.57031 17.3585 5.47656C12.3897 13.5938 9.38971 20.2109 8.58502 24.8203C8.28815 26.4922 8.36627 28.5312 8.78033 30.1406C9.95221 34.6406 13.4756 38.1875 17.9757 39.3984C19.1163 39.7109 19.8507 39.7969 21.2491 39.7969C22.6319 39.7969 23.3663 39.7109 24.5147 39.4141C28.546 38.3594 31.9288 35.2969 33.3428 31.4062C34.7491 27.5625 34.3038 23.9453 31.6553 17.6953C30.6241 15.25 28.3428 10.8125 26.6007 7.85156C24.8897 4.94531 22.1475 0.664062 21.8116 0.367188C21.5928 0.164062 21.1085 0.125 20.835 0.28125ZM23.335 5.97656C28.2725 13.9844 31.3038 20.5547 32.1553 25.0781C32.3272 25.9688 32.3428 27.8047 32.1944 28.6719C31.6163 32.0156 29.7647 34.7344 26.8897 36.4609C25.1553 37.5 23.3194 38 21.21 37.9922C19.9288 37.9844 19.0069 37.8438 17.835 37.4531C14.1085 36.2344 11.2725 33.0859 10.4288 29.2188C10.2256 28.2969 10.1866 26.2812 10.3428 25.3047C10.9991 21.3594 13.3506 15.9141 17.4835 8.82812C18.4913 7.10938 19.796 4.96875 20.7335 3.52344L21.2647 2.71094L21.8663 3.64062C22.1944 4.14844 22.8585 5.20312 23.335 5.97656Z" fill="#BFDE8E"/>
<path d="M28.8276 26.086C28.3041 26.2032 28.1557 26.4844 28.0463 27.5235C27.8744 29.2032 27.2963 30.4844 26.1791 31.6719C25.0307 32.8828 23.5463 33.5782 21.7338 33.75C20.8744 33.8282 20.7104 33.8985 20.5151 34.2266C20.3041 34.5782 20.351 35.0313 20.6166 35.2969C20.9135 35.5938 21.1401 35.6328 22.0541 35.5469C26.1869 35.1563 29.3979 31.9688 29.851 27.8203C29.9448 26.9297 29.8901 26.5391 29.6166 26.2969C29.4291 26.125 29.0776 26.0313 28.8276 26.086Z" fill="#BFDE8E"/>
<path d="M35.937 1.34422C35.5698 1.59422 35.476 1.90672 35.476 2.94579L35.4682 3.8286H34.5698C33.562 3.8286 33.2182 3.92235 32.9995 4.25829C32.8276 4.5161 32.8198 4.91454 32.9682 5.19579C33.1635 5.55516 33.4135 5.62547 34.476 5.62547H35.4526L35.4838 6.65672C35.5073 7.46922 35.5463 7.74266 35.6479 7.89891C36.0698 8.53172 37.062 8.3911 37.2651 7.67235C37.3042 7.5161 37.3432 6.98485 37.3432 6.50047V5.62547H38.3667C39.5307 5.62547 39.7573 5.53954 39.9214 5.03954C40.0385 4.67235 39.9604 4.36766 39.6792 4.09422C39.4448 3.86766 39.4292 3.86766 38.3979 3.84422L37.3588 3.81297L37.3276 2.7661L37.3042 1.71922L37.062 1.47704C36.726 1.14891 36.3042 1.09422 35.937 1.34422Z" fill="#BFDE8E"/>
<path d="M3.2887 28.6172C2.7887 28.7891 2.69495 29.0157 2.67151 30.2032L2.64026 31.25H1.6012C0.569948 31.25 0.562135 31.25 0.32776 31.4688C-0.10974 31.8828 -0.0706779 32.4844 0.413697 32.8438C0.60901 32.9844 0.76526 33.0078 1.64807 33.0313L2.65589 33.0625V33.9532C2.65589 34.8985 2.73401 35.2344 3.02307 35.4922C3.25745 35.6953 3.67932 35.7422 3.96839 35.5938C4.4137 35.3672 4.48401 35.1641 4.51526 34.0469L4.54651 33.0469H5.46058C6.52308 33.0469 6.83558 32.9375 7.05433 32.4922C7.2262 32.1328 7.1637 31.7813 6.85901 31.4766L6.62464 31.25H5.58558H4.54651L4.51526 30.211C4.49183 29.4063 4.45276 29.1328 4.3512 28.9766C4.11683 28.625 3.68714 28.4766 3.2887 28.6172Z" fill="#BFDE8E"/>
</svg>
