<svg width="24" height="25" viewBox="0 0 24 25" fill="none" xmlns="http://www.w3.org/2000/svg">
<path d="M12.8715 6.82632C14.0713 7.02742 15.1613 7.59414 16.0315 8.4625C16.9016 9.33087 17.4649 10.4186 17.671 11.616M13.0547 2.90039C15.1888 3.26145 17.1352 4.27149 18.6831 5.8117C20.2311 7.35647 21.2386 9.29887 21.6004 11.4286M19.9333 19.9021C19.9333 19.9021 18.7747 21.0401 18.4907 21.3737C18.0282 21.8673 17.4832 22.1004 16.7688 22.1004C16.7001 22.1004 16.6268 22.1004 16.5581 22.0958C15.1979 22.009 13.9339 21.4788 12.9859 21.0264C10.3938 19.7741 8.11773 17.9962 6.22631 15.743C4.66463 13.8646 3.62046 12.1279 2.92893 10.2632C2.50302 9.12519 2.34731 8.23854 2.416 7.40217C2.4618 6.86744 2.66789 6.42412 3.048 6.04478L4.60968 4.4863C4.83408 4.27606 5.07223 4.1618 5.30579 4.1618C5.59431 4.1618 5.82788 4.33547 5.97443 4.48173C5.97901 4.4863 5.98359 4.49087 5.98817 4.49544C6.26753 4.75595 6.53315 5.0256 6.81251 5.31353C6.95448 5.45978 7.10103 5.60603 7.24758 5.75685L8.49784 7.00455C8.98329 7.48901 8.98329 7.9369 8.49784 8.42136C8.36503 8.5539 8.2368 8.68644 8.10399 8.81441C7.71929 9.20746 8.02149 8.90587 7.62306 9.26236C7.6139 9.2715 7.60474 9.27607 7.60016 9.28521C7.2063 9.67826 7.27958 10.0622 7.36201 10.3227C7.36659 10.3364 7.37117 10.3501 7.37575 10.3638C7.70091 11.1499 8.15888 11.8903 8.855 12.7724L8.85958 12.777C10.1236 14.3309 11.4563 15.542 12.9263 16.4698C13.1141 16.5886 13.3065 16.6846 13.4896 16.776C13.6545 16.8583 13.8102 16.936 13.943 17.0182C13.9614 17.0274 13.9797 17.0411 13.998 17.0502C14.1537 17.1279 14.3003 17.1645 14.4514 17.1645C14.8315 17.1645 15.0696 16.9268 15.1475 16.8491L16.0452 15.9533C16.2009 15.7979 16.4482 15.6105 16.7367 15.6105C17.0207 15.6105 17.2542 15.7887 17.3962 15.9441C17.4008 15.9487 17.4008 15.9487 17.4054 15.9533L19.9288 18.4715C20.4005 18.9377 19.9333 19.9021 19.9333 19.9021Z" stroke="#BFDE8E" stroke-width="2" stroke-linecap="round" stroke-linejoin="round"/>
</svg>
