<svg width="50" height="50" viewBox="0 0 41 40" fill="none" xmlns="http://www.w3.org/2000/svg">
<path d="M8.59383 28.099L7.765 27.5395L7.765 27.5395L8.59383 28.099ZM10.4106 22.3024L9.41055 22.2915V22.3024H10.4106ZM10.4487 18.7977L11.4487 18.8086V18.7977H10.4487ZM33.2678 28.1271L34.1073 27.5837L34.1073 27.5837L33.2678 28.1271ZM31.5195 22.3024L30.5195 22.2909V22.3024H31.5195ZM31.5576 18.9714L32.5576 18.9828V18.9714H31.5576ZM16.7603 34C16.208 34 15.7603 34.4477 15.7603 35C15.7603 35.5523 16.208 36 16.7603 36V34ZM25.0917 36C25.6439 36 26.0917 35.5523 26.0917 35C26.0917 34.4477 25.6439 34 25.0917 34V36ZM6.65508 10.2768C6.45887 10.7931 6.71831 11.3706 7.23456 11.5668C7.75082 11.7631 8.32839 11.5036 8.5246 10.9874L6.65508 10.2768ZM12.7774 5.86946C13.2576 5.59662 13.4257 4.98618 13.1528 4.50599C12.88 4.0258 12.2696 3.85771 11.7894 4.13054L12.7774 5.86946ZM30.0334 4.15115C29.5562 3.87309 28.944 4.0345 28.6659 4.51168C28.3879 4.98886 28.5493 5.60111 29.0265 5.87917L30.0334 4.15115ZM33.3181 10.9624C33.5091 11.4806 34.0839 11.746 34.6022 11.5551C35.1204 11.3642 35.3858 10.7893 35.1949 10.2711L33.3181 10.9624ZM9.42265 28.6585C10.4279 27.1694 11.4106 24.9691 11.4106 22.3024H9.41055C9.41055 24.473 8.60864 26.2898 7.765 27.5395L9.42265 28.6585ZM11.4105 22.3133L11.4486 18.8086L9.44874 18.7868L9.41061 22.2915L11.4105 22.3133ZM34.1073 27.5837C33.2981 26.3337 32.5195 24.5004 32.5195 22.3024H30.5195C30.5195 24.975 31.4638 27.1806 32.4284 28.6706L34.1073 27.5837ZM32.5194 22.3138L32.5575 18.9828L30.5576 18.9599L30.5195 22.2909L32.5194 22.3138ZM32.5576 18.9714C32.5576 11.9259 27.4576 6.00761 20.926 6.00761V8.00761C26.1377 8.00761 30.5576 12.802 30.5576 18.9714H32.5576ZM32.6316 30.7514C33.5483 30.7514 34.0737 30.0406 34.2725 29.5149C34.4795 28.9678 34.5143 28.2125 34.1073 27.5837L32.4284 28.6705C32.4123 28.6457 32.4208 28.6437 32.4227 28.6811C32.4246 28.7186 32.4177 28.7657 32.4019 28.8073C32.3851 28.8516 32.3731 28.8526 32.3972 28.8313C32.4113 28.8189 32.4388 28.7983 32.4816 28.7808C32.5259 28.7626 32.5777 28.7514 32.6316 28.7514V30.7514ZM11.4487 18.7977C11.4487 12.7243 15.7995 8.00761 20.926 8.00761V6.00761C14.4795 6.00761 9.44868 11.8482 9.44868 18.7977H11.4487ZM9.2219 28.7514C9.27696 28.7514 9.32985 28.763 9.37483 28.7818C9.41808 28.7999 9.44543 28.8208 9.45889 28.8329C9.48162 28.8534 9.46789 28.85 9.45029 28.8021C9.43373 28.7569 9.42696 28.7068 9.42938 28.6676C9.4318 28.6284 9.44077 28.6317 9.42265 28.6585L7.765 27.5395C7.33916 28.1703 7.37006 28.9387 7.57267 29.4909C7.76666 30.0197 8.29081 30.7514 9.2219 30.7514V28.7514ZM32.6316 28.7514H9.2219V30.7514H32.6316V28.7514ZM16.7603 36H25.0917V34H16.7603V36ZM8.5246 10.9874C9.36334 8.7806 10.8561 6.96112 12.7774 5.86946L11.7894 4.13054C9.42256 5.47532 7.64155 7.68137 6.65508 10.2768L8.5246 10.9874ZM29.0265 5.87917C30.9859 7.02097 32.522 8.80095 33.3181 10.9624L35.1949 10.2711C34.2322 7.65779 32.3797 5.51839 30.0334 4.15115L29.0265 5.87917Z" fill="#BFDE8E"/>
</svg>
